# xmcd CD database file
# Copyright (C) 1993-1998 Ti Kan
#
# Track frame offsets:
#  150
#  20540
#  43775
#  59117
#  82475
#  105687
#  127597
#  158635
#  179477
#  195122
#  216910
#  238152
#
# Disc length: 3475 seconds
#
# Revision: 1
# Processed by: cddbd v1.4b41PL1 Copyright (c) Steve Scherf et al.
# Submitted via: CDWizzard Release:4.35
#
DISCID=a70d910c
DTITLE=Deitra Farr - The Search Is Over
DYEAR=1900
DGENRE=
TTITLE0=Anywhere But Here
TTITLE1=Bad Company
TTITLE2=You've Got To Choose
TTITLE3=Waiting For You
TTITLE4=I Refuse To Lose
TTITLE5=How Much Longer
TTITLE6=Taking The Long Way Home
TTITLE7=Waiting For The Blues
TTITLE8=The Search Is Over
TTITLE9=Must Have Been An Angel
TTITLE10=Stealin' Your Love
TTITLE11=This I Know To Be True
EXTD=Deitra Farr shot to fame as the singer with Mississippi Heat, a Chic
EXTD=ago all star band which has rocked its way around the national and i
EXTD=nternational blues circuit in the past few years. This is her debut 
EXTD=solo album and she is in the company here of one of the great names 
EXTD=in deep, southern style blues/soul -- Johnny Rawls, a man whose care
EXTD=er goes way back to O.V. Wright.  This album is very much Deitra's m
EXTD=usical vision though and also features her strong songwriting abilit
EXTD=ies.
EXTT0=
EXTT1=
EXTT2=
EXTT3=
EXTT4=
EXTT5=
EXTT6=
EXTT7=
EXTT8=
EXTT9=
EXTT10=
EXTT11=
PLAYORDER=
